PathFileType	3	(X/Y/Z)	D:\Jess\PFP\Labelled\PA23\20251014\SRRun01.trc
DataRate	CameraRate	NumFrames	NumMarkers	Units	OrigDataRate	OrigDataStartFrame	OrigNumFrames
250.0	250.0	4	37	mm	250.0	35312	2501
Frame#	Time	C7			T10			CLAV			LSHO			RSHO			LASIS			RASIS			LPSIS			RPSIS			LILCR			RILCR			LGTR			LTHI			LLTHI			LLEP			LMEP			LPSH			LLSH			LDSH			LLMAL			LMMAL			LTOE			L5TH			LHEE			RGTR			RTHI			RLTHI			RLEP			RMEP			RPSH			RLSH			RDSH			RLMAL			RMMAL			RTOE			R5TH			RHEE			
		X1	Y1	Z1	X2	Y2	Z2	X3	Y3	Z3	X4	Y4	Z4	X5	Y5	Z5	X6	Y6	Z6	X7	Y7	Z7	X8	Y8	Z8	X9	Y9	Z9	X10	Y10	Z10	X11	Y11	Z11	X12	Y12	Z12	X13	Y13	Z13	X14	Y14	Z14	X15	Y15	Z15	X16	Y16	Z16	X17	Y17	Z17	X18	Y18	Z18	X19	Y19	Z19	X20	Y20	Z20	X21	Y21	Z21	X22	Y22	Z22	X23	Y23	Z23	X24	Y24	Z24	X25	Y25	Z25	X26	Y26	Z26	X27	Y27	Z27	X28	Y28	Z28	X29	Y29	Z29	X30	Y30	Z30	X31	Y31	Z31	X32	Y32	Z32	X33	Y33	Z33	X34	Y34	Z34	X35	Y35	Z35	X36	Y36	Z36	X37	Y37	Z37	

313	141.244	850.0882804824939	1701.114793718328	-887.0365769258567	832.1255078928465	1445.730967567894	-824.3607945696185	874.097317501084	1586.869277408887	-1050.847158422231	677.928370216824	1669.678823079682	-986.3082812302041	1017.626910586698	1669.618250062942	-916.1826884092465	719.8101946833461	1150.812729997167	-1000.018601002469	979.0069134050842	1163.951445887489	-1010.984392494094	828.0824374217368	1205.343026486237	-826.0304073915717	884.4782617366099	1204.699444113986	-823.5756160982424	697.4000274941454	1244.998595100809	-951.1564371055125	1015.633278644466	1254.04767363274	-941.3026742342388	680.0791415829485	1010.499554732208	-894.3682436163143	782.6130734313948	827.2669598622927	-957.2684921688623	741.8845698407745	714.9767018716565	-839.8972255508444	764.847579748963	584.2473725987261	-789.0375543411961	nan	nan	nan	832.4465296183592	463.2595197009509	-782.1032035818874	768.4104534074365	395.8520508653286	-669.9698119556341	848.5222027817227	271.1069900256402	-643.6872235467953	812.0820128062705	173.6937853174684	-531.0691686383398	nan	nan	nan	823.2552300136488	66.04604831077444	-662.8229139744038	779.4983238915696	60.64811264352959	-611.2283567264157	868.068136975474	170.0584568303722	-443.7632483382805	1049.342860489151	1026.167456571896	-946.1551502579919	977.0696988441865	913.1484532492972	-1119.823153055435	1031.743731449033	778.8298478766569	-1073.513165441856	1012.341326914547	650.4531135189175	-1124.676825014434	nan	nan	nan	972.2580910229749	525.8776311165617	-1105.489306280556	1027.108964329563	504.7349952884981	-943.7765861972755	972.565462178623	382.7241783605542	-903.3946246280155	1006.69298565758	328.5138969880334	-768.8653345239239	nan	nan	nan	1003.163317574984	175.7584444366164	-854.1875301852863	1046.145302783818	184.3388832271906	-798.0675840391668	953.1951695704172	347.8486023140654	-676.213503004937	
314	141.248	849.9491599873458	1704.43917498	-886.8906095762699	830.6112076705194	1449.026965148537	-825.3025376688657	874.7427347871059	1591.183292760978	-1050.951688596073	678.4861160960111	1674.083073075113	-987.3256661947756	1017.309316145633	1673.168250513258	-915.4414733808081	720.9039580255728	1153.848101217312	-1001.815492106315	979.4411407125484	1169.264715012374	-1011.511028308073	828.0202831421724	1209.719175692395	-827.4864954953167	884.4976831213968	1209.461054936849	-824.6577781225775	697.8893353515499	1248.542229492605	-954.0458511340964	1015.265684086704	1259.983688306666	-941.9529801632932	680.9376817767157	1013.815744769591	-895.0765186089016	784.7197817074151	830.1856635571352	-954.4436047094032	741.5185272206005	719.3458186888652	-835.8357381249434	763.7058836954276	589.5361149086095	-781.9440284018077	nan	nan	nan	831.0210199106516	468.348019373951	-774.373686974553	767.2137441876936	401.3508067166013	-661.8868999838804	846.9351705699634	275.9593882340138	-636.5225013452639	811.1430487730107	178.2918791459957	-523.8107309448604	nan	nan	nan	822.7819426189023	65.99002333884513	-652.3646768520357	779.3410096442777	61.62646083707526	-600.6257170537871	867.5807644416268	177.2574888791124	-436.9176768974693	1049.991009877904	1032.155383361834	-947.5964170084321	976.0260259021744	918.7810271624006	-1120.929076060368	1031.509727664842	784.2829034724061	-1075.372175975993	1011.36343254272	654.6730105780643	-1125.750678436242	nan	nan	nan	971.1601873042807	529.1516712927523	-1109.57252402521	1026.08462022514	502.7042206607438	-948.8668268365599	971.4919284930783	379.5439147709134	-912.2990197920739	1005.560001159341	320.6465718947117	-779.7165158179929	nan	nan	nan	1002.02538899538	171.3822071063537	-870.5117570700601	1044.917693046137	177.7761999042429	-814.0236452680248	952.0546253899706	336.7979235561741	-686.455004743003	
315	141.252	849.8008513977178	1707.674931505936	-886.7475158742906	829.1450770290511	1452.268628587657	-826.2305718763727	875.3444808591673	1595.427265337991	-1051.06499464958	679.0473618561156	1678.418833655717	-988.310040052392	1016.984284861492	1676.644672530043	-914.7642754206336	722.078074009051	1156.923017492541	-1003.64982780284	979.94342153874	1174.543888020148	-1012.02069967488	828.0121320694692	1214.088010339408	-828.9740435500387	884.5313115793492	1214.192349838428	-825.7663668301569	698.4497795189474	1252.137959216325	-956.8337161697355	1014.912839839121	1265.868956488927	-942.5726943539786	681.7866084321621	1017.151741997944	-895.8723520560574	786.6199591624427	833.0927215420066	-951.7849054395691	741.0459346146628	723.7575785281408	-831.9667423386459	762.4307425981717	594.8938144436559	-775.0910269954293	nan	nan	nan	829.382107909747	473.4911843642043	-766.9851284972189	765.9047834415182	406.9213668931467	-654.073171037419	845.165970010917	280.8273028734496	-629.7203105469576	810.1051047194057	182.9418754638623	-516.8996993001259	nan	nan	nan	822.2296106588891	65.96334028567748	-642.0291398882301	779.1563733088784	62.71429786259639	-590.1140559188458	867.0313357006324	184.6224402607187	-430.5343263165929	1050.653527215267	1038.090301949539	-948.8588599060516	974.9588912680691	924.3451940753799	-1121.960066816528	1031.239323644238	789.6154267236766	-1077.062754930789	1010.421508677611	658.6709093098615	-1126.611615138799	nan	nan	nan	970.0903840011175	532.2992664281193	-1113.480688091755	1025.072359292218	500.5241380555073	-953.9624706947874	970.4285649415939	376.348258121942	-921.2826482228761	1004.396108481088	312.832091892039	-790.7934080911856	nan	nan	nan	1000.968709964871	167.2497498987353	-886.9285609160294	1043.746006995293	171.4792581509263	-830.1463088523608	950.8139928489134	325.7369867353927	-697.08022242538	
316	141.256	849.6396517032072	1710.813261159306	-886.6086736449147	827.7345494463294	1455.447924977304	-827.1423041927806	875.9049971521731	1599.589087887486	-1051.188331364596	679.6115848169989	1682.672862921492	-989.2615149800927	1016.650535818184	1680.041268674766	-914.1443174658338	723.3214421514689	1160.021005577521	-1005.509848343075	980.5104505915883	1179.760143192672	-1012.515465588242	828.0542742881643	1218.434858134818	-830.4888224946884	884.5747621767242	1218.878608151208	-826.8990218437867	699.0758978037156	1255.769684466958	-959.5068259276279	1014.582563113715	1271.666164518318	-943.1578965526612	682.6223376920864	1020.498838755542	-896.7375562857334	788.2845251338885	835.9649764949583	-949.2871186101523	740.4808074594606	728.1953277064484	-828.2638280774908	761.0400732895189	600.3007226523695	-768.4726564377626	nan	nan	nan	827.5503453535213	478.6625594012598	-759.9337221205985	764.4947150280689	412.5399795522383	-646.5304319844827	843.2268936440881	285.6847404735968	-623.2583227028588	808.9648205847097	187.6256612067447	-510.3196607358434	nan	nan	nan	821.5969499674128	65.99253588940586	-631.8071306240818	778.94688404867	63.92701401855216	-579.6837413041284	866.4091907342985	192.1230887126318	-424.6060312342561	1051.337906690043	1043.950693790789	-949.9379482252768	973.8864278094119	929.8311484068688	-1122.913390125496	1030.92680541514	794.80827690367	-1078.571261994822	1009.520210131432	662.4441411256435	-1127.262829276389	nan	nan	nan	969.0575657857934	535.317312665829	-1117.214604820877	1024.075961339438	498.2004287959944	-959.0602701074777	969.3778965381535	373.1461577558807	-930.3418019212105	1003.20338318148	305.0881204583293	-802.0904644599806	nan	nan	nan	999.9865015314831	163.3737087031639	-903.4280220151542	1042.627069250552	165.4596908786638	-846.4254555603438	949.4817896733857	314.6926636368225	-708.0847036511694	
